<svg xmlns="http://www.w3.org/2000/svg" width="1024" height="1024" viewBox="0 0 1024 1024"><defs><linearGradient id="grad-0" x1="0.9330127018922194" y1="0.25" x2="0.06698729810778065" y2="0.75"><stop offset="0" stop-color="#F3F4FA"/><stop offset="1" stop-color="#CDD2E0"/></linearGradient><linearGradient id="grad-1" x1="0.1464466094067262" y1="0.14644660940672627" x2="0.8535533905932737" y2="0.8535533905932737"><stop offset="0" stop-color="#22D3EE"/><stop offset="1" stop-color="#6366F1"/></linearGradient><linearGradient id="grad-2" x1="0.1464466094067262" y1="0.8535533905932737" x2="0.8535533905932737" y2="0.14644660940672627"><stop offset="0" stop-color="#EC4899"/><stop offset="1" stop-color="#A78BFA"/></linearGradient><clipPath id="clip-3"><rect x="0" y="0" width="1024" height="1024"/></clipPath></defs><g clip-path="url(#clip-3)"><path data-name="Alpha BG" d="M 272 80 H 752 C 900.39946878464 80 944 123.60053121535998 944 272 V 752 C 944 900.39946878464 900.39946878464 944 752 944 H 272 C 123.60053121535998 944 80 900.39946878464 80 752 V 272 C 80 123.60053121535998 123.60053121535998 80 272 80 Z" fill="url(#grad-0)" stroke="none"/><path data-name="Vector" d="M 266 237 L 564.8888999999999 512 L 266 787 V 667.4348 L 433.3778 512 L 266 356.5652 Z" fill="url(#grad-1)" stroke="none"/><path data-name="Vector" d="M 460 237 L 758.8888999999999 512 L 460 787 V 667.4348 L 627.3778 512 L 460 356.5652 Z" fill="url(#grad-2)" stroke="none"/></g></svg>
